<?xml version="1.0" encoding="iso-8859-1"?>
<!-- Generator: Adobe Illustrator 19.0.0, SVG Export Plug-In . SVG Version: 6.00 Build 0)  -->
<svg version="1.1" id="Capa_1" xmlns="http://www.w3.org/2000/svg" xmlns:xlink="http://www.w3.org/1999/xlink" x="0px" y="0px"
	 viewBox="0 0 512 512" style="enable-background:new 0 0 512 512;" xml:space="preserve">
<path style="fill:#464646;" d="M508,477.5H4c-2.209,0-4-1.791-4-4v-435c0-2.209,1.791-4,4-4h504c2.209,0,4,1.791,4,4v435
	C512,475.709,510.209,477.5,508,477.5z"/>
<path style="fill:#353535;" d="M508,477.5h-26.905v-443H508c2.209,0,4,1.791,4,4v435C512,475.709,510.209,477.5,508,477.5z"/>
<path style="fill:#595959;" d="M30.905,442.593V69.407c0-2.209,1.791-4,4-4h442.189c2.209,0,4,1.791,4,4v373.186
	c0,2.209-1.791,4-4,4H34.905C32.696,446.593,30.905,444.802,30.905,442.593z"/>
<g>
	<circle style="fill:#FFDEA9;" cx="104.83" cy="108.35" r="14.999"/>
	<circle style="fill:#FFDEA9;" cx="204.16" cy="108.35" r="14.999"/>
	<circle style="fill:#FFDEA9;" cx="303.94" cy="108.35" r="14.999"/>
	<circle style="fill:#FFDEA9;" cx="403.69" cy="108.35" r="14.999"/>
</g>
<path style="fill:#FF803C;" d="M74.444,213.211v-53.814c0-2.209,1.791-4,4-4h53.811c2.209,0,4,1.791,4,4v53.814c0,2.209-1.791,4-4,4
	H78.444C76.234,217.211,74.444,215.42,74.444,213.211z"/>
<g>
	<path style="fill:#FFDEA9;" d="M173.548,213.211v-53.814c0-2.209,1.791-4,4-4h53.811c2.209,0,4,1.791,4,4v53.814
		c0,2.209-1.791,4-4,4h-53.811C175.339,217.211,173.548,215.42,173.548,213.211z"/>
	<path style="fill:#FFDEA9;" d="M273.167,213.211v-53.814c0-2.209,1.791-4,4-4h53.811c2.209,0,4,1.791,4,4v53.814
		c0,2.209-1.791,4-4,4h-53.811C274.958,217.211,273.167,215.42,273.167,213.211z"/>
	<path style="fill:#FFDEA9;" d="M372.787,213.211v-53.814c0-2.209,1.791-4,4-4h53.811c2.209,0,4,1.791,4,4v53.814
		c0,2.209-1.791,4-4,4h-53.811C374.578,217.211,372.787,215.42,372.787,213.211z"/>
	<path style="fill:#FFDEA9;" d="M74.444,311.801v-53.814c0-2.209,1.791-4,4-4h53.811c2.209,0,4,1.791,4,4v53.814
		c0,2.209-1.791,4-4,4H78.444C76.234,315.801,74.444,314.01,74.444,311.801z"/>
	<path style="fill:#FFDEA9;" d="M173.548,311.801v-53.814c0-2.209,1.791-4,4-4h53.811c2.209,0,4,1.791,4,4v53.814
		c0,2.209-1.791,4-4,4h-53.811C175.339,315.801,173.548,314.01,173.548,311.801z"/>
</g>
<path style="fill:#FFCE55;" d="M273.167,311.801v-53.814c0-2.209,1.791-4,4-4h53.811c2.209,0,4,1.791,4,4v53.814
	c0,2.209-1.791,4-4,4h-53.811C274.958,315.801,273.167,314.01,273.167,311.801z"/>
<path style="fill:#FF803C;" d="M372.787,311.801v-53.814c0-2.209,1.791-4,4-4h53.811c2.209,0,4,1.791,4,4v53.814
	c0,2.209-1.791,4-4,4h-53.811C374.578,315.801,372.787,314.01,372.787,311.801z"/>
<path style="fill:#FFCE55;" d="M74.444,410.391v-53.814c0-2.209,1.791-4,4-4h53.811c2.209,0,4,1.791,4,4v53.814c0,2.209-1.791,4-4,4
	H78.444C76.234,414.391,74.444,412.601,74.444,410.391z"/>
<g>
	<path style="fill:#FFDEA9;" d="M173.548,410.391v-53.814c0-2.209,1.791-4,4-4h53.811c2.209,0,4,1.791,4,4v53.814
		c0,2.209-1.791,4-4,4h-53.811C175.339,414.391,173.548,412.601,173.548,410.391z"/>
	<path style="fill:#FFDEA9;" d="M273.167,410.391v-53.814c0-2.209,1.791-4,4-4h53.811c2.209,0,4,1.791,4,4v53.814
		c0,2.209-1.791,4-4,4h-53.811C274.958,414.391,273.167,412.601,273.167,410.391z"/>
	<path style="fill:#FFDEA9;" d="M372.787,410.391v-53.814c0-2.209,1.791-4,4-4h53.811c2.209,0,4,1.791,4,4v53.814
		c0,2.209-1.791,4-4,4h-53.811C374.578,414.391,372.787,412.601,372.787,410.391z"/>
</g>
<g>
</g>
<g>
</g>
<g>
</g>
<g>
</g>
<g>
</g>
<g>
</g>
<g>
</g>
<g>
</g>
<g>
</g>
<g>
</g>
<g>
</g>
<g>
</g>
<g>
</g>
<g>
</g>
<g>
</g>
</svg>
