<svg height="512" viewBox="0 0 512 512" width="512" xmlns="http://www.w3.org/2000/svg"><path d="m280 480c0 4.418-10.745 8-24 8s-24-3.582-24-8v-64h48z" fill="#4a4d4f"/><path d="m232 416v32a55.721 55.721 0 0 1 10.055-32z" fill="#37383a"/><path d="m232 480c0 4.418 10.745 8 24 8s24-3.582 24-8v-28.5c0 4.418-10.745 8-24 8s-24-3.582-24-8z" fill="#888c8e"/><path d="m280 416c0 4.418-10.745 8-24 8s-24-3.582-24-8v-248h48z" fill="#888c8e"/><path d="m238.648 421.523a56.037 56.037 0 0 1 41.352-28.945v-224.578h-48v248c0 2.143 2.532 4.087 6.648 5.523z" fill="#6d7072"/><ellipse cx="256" cy="312" fill="#f2b016" rx="232" ry="56"/><path d="m48 327.367c0-30.928 103.87-56 232-56 87.193 0 163.138 11.613 202.774 28.779-22.534-25.234-115.496-44.146-226.774-44.146-128.13 0-232 25.072-232 56 0 9.881 10.617 19.163 29.226 27.222-3.412-3.822-5.226-7.787-5.226-11.855z" fill="#fccd31"/><ellipse cx="256" cy="312" fill="#c6975d" rx="72" ry="24"/><path d="m272 328c0 4.418-7.163 8-16 8s-16-3.582-16-8v-96h32z" fill="#4a4d4f"/><ellipse cx="256" cy="216" fill="#fccd31" rx="232" ry="56"/><path d="m417.084 175.7c14.685 7.352 22.916 15.594 22.916 24.3 0 30.928-103.87 56-232 56-62.575 0-119.355-5.982-161.085-15.7 37.485 18.756 117.022 31.7 209.085 31.7 128.13 0 232-25.072 232-56 0-15.824-27.2-30.112-70.916-40.3z" fill="#f2b016"/><path d="m336 64h16v80h-16z" fill="#242526"/><path d="m304 88h56v32h-56z" fill="#888c8e"/><path d="m344 88h-40v12.132a71.663 71.663 0 0 1 40-12.132z" fill="#6d7072"/><path d="m360 88h-16a72.155 72.155 0 0 1 16 1.807z" fill="#6d7072"/><path d="m272 88h40v32h-40z" fill="#4a4d4f"/><path d="m312 95.5v-7.5h-40v32h12.132a72.317 72.317 0 0 1 27.868-24.5z" fill="#37383a"/><path d="m328 192c0 13.255-32.235 24-72 24s-72-10.745-72-24 32.235-48 72-48 72 34.745 72 48z" fill="#e8b878"/><path d="m312.365 167.728a159.289 159.289 0 0 1 -96.365 32.272 160.784 160.784 0 0 1 -30.346-2.887c7.032 10.798 35.846 18.887 70.346 18.887 39.765 0 72-10.745 72-24 0-5.643-5.857-15.179-15.635-24.272z" fill="#c6975d"/><path d="m248 16h16v52.5h-16z" fill="#4a4d4f"/><path d="m280 152v-80l-8.845-4.422a33.883 33.883 0 0 0 -15.155-3.578 33.883 33.883 0 0 0 -15.155 3.578l-8.845 4.422v80c0 4.418 10.745 8 24 8s24-3.582 24-8z" fill="#888c8e"/><path d="m279.417 112h.583v-40c0 4.418-10.745 8-24 8s-24-3.582-24-8v8.516a64 64 0 0 1 47.417 31.484z" fill="#6d7072"/></svg>