<?xml version="1.0" standalone="no"?>
<!DOCTYPE svg PUBLIC "-//W3C//DTD SVG 20010904//EN" "http://www.w3.org/TR/2001/REC-SVG-20010904/DTD/svg10.dtd">
<!-- Created using Krita: https://krita.org -->
<svg xmlns="http://www.w3.org/2000/svg" 
    xmlns:xlink="http://www.w3.org/1999/xlink"
    xmlns:krita="http://krita.org/namespaces/svg/krita"
    xmlns:sodipodi="http://sodipodi.sourceforge.net/DTD/sodipodi-0.dtd"
    width="259.2pt"
    height="259.2pt"
    viewBox="0 0 259.2 259.2">
<defs/>
<ellipse id="shape0" transform="translate(21.7839803439803, 23.8614250614251)" rx="105" ry="104.88" cx="105" cy="104.88" fill="#e6f0ff" fill-rule="evenodd" stroke="#000000" stroke-opacity="0" stroke-width="0" stroke-linecap="square" stroke-linejoin="bevel"/><path id="shape0" transform="matrix(0.694444280920064 0 0 0.694444280920064 65.8817355422001 123.953304122803)" fill="none" stroke="#000000" stroke-width="4.8" stroke-linecap="square" stroke-linejoin="bevel" d="M48.7943 0C54.9748 6.65738 46.9323 22.0472 36.7943 35.52C33.8206 23.4062 21.0694 -9.85017 1.75434 13.44C-6.33541 31.3995 15.1992 57.281 32.7143 67.92C33.5614 90.9647 32.259 109.344 28.3943 122.16C64.7358 144.4 102.931 142.827 132.554 129.36C132.456 126.044 132.202 123.045 133.274 117.36"/><path id="shape12" transform="matrix(0.694444268956894 0 0 0.694444268956894 101.600023843235 107.453306285446)" fill="none" stroke="#000000" stroke-width="4.8" stroke-linecap="square" stroke-linejoin="bevel" d="M0 110.64C12.662 131.2 31.9283 137.869 50.88 145.2C88.5966 152.26 139.016 102.842 118.08 48.72C123.99 32.2738 122.563 16.1332 120.96 0"/><path id="shape01" transform="matrix(0.694444268956894 0 0 0.694444268956894 61.6189911606243 58.3260388675744)" fill="none" stroke="#000000" stroke-width="4.8" stroke-linecap="square" stroke-linejoin="bevel" d="M15.0927 100.023C-15.6361 52.0419 0.730746 -3.60452 62.6127 0.183282"/><path id="shape1" transform="matrix(0.694444268956894 0 0 0.694444268956894 89.4333602511102 42.2166156894295)" fill="none" stroke="#000000" stroke-width="4.8" stroke-linecap="square" stroke-linejoin="bevel" d="M0 22.901C7.47052 11.3345 18.4499 8.94824 31.68 12.101C69.7339 -11.2584 99.7856 2.39276 127.68 26.021C152.969 40.8309 155.694 66.1175 145.2 97.541C141.556 94.1922 136.582 94.3898 134.64 86.501"/><path id="shape2" transform="matrix(0.694444268956894 0 0 0.694444268956894 147.266678969841 81.28664623115)" fill="none" stroke="#000000" stroke-width="4.8" stroke-linecap="square" stroke-linejoin="bevel" d="M48.72 8.16C57.5129 20.9523 48.8546 43.6318 27.12 52.8C35.2229 39.4521 39.6436 25.3538 33.36 19.2C35.9436 24.248 28.393 51.9606 0 49.68C16.5894 30.9611 26.392 14.6575 17.76 0"/><path id="shape3" transform="matrix(0.694444268956894 0 0 0.694444268956894 111.933354565315 98.6199751843145)" fill="none" stroke="#000000" stroke-width="4.8" stroke-linecap="square" stroke-linejoin="bevel" d="M58.8 0C59.7989 14.5912 45.7467 29.0335 0 29.04"/><path id="shape4" transform="matrix(0.694444268956894 0 0 0.694444268956894 126.433350901134 93.9533096969236)" fill="none" stroke="#000000" stroke-width="4.8" stroke-linecap="square" stroke-linejoin="bevel" d="M18.72 0C16.6087 12.8582 11.3685 22.1559 0 24.48"/><path id="shape5" transform="matrix(0.694444268956894 0 0 0.694444268956894 88.100027254713 89.6199774586324)" fill="none" stroke="#000000" stroke-width="4.8" stroke-linecap="square" stroke-linejoin="bevel" d="M48 0C56.7574 28.8356 36.29 40.7992 14.64 52.08C21.5041 40.0892 26.4664 27.8266 26.64 14.88C18.56 31.36 9.68 41.76 0 46.08C4.05546 36.5219 12.1537 24.6313 8.64 19.44"/><path id="shape6" transform="matrix(0.694444268956894 0 0 0.694444268956894 81.9701829828443 68.2866495162772)" fill="none" stroke="#000000" stroke-width="4.8" stroke-linecap="square" stroke-linejoin="bevel" d="M1.86701 51.84C-6.25382 22.3336 12.8128 7.48295 45.547 0"/><path id="shape7" transform="matrix(0.694444268956894 0 0 0.694444268956894 137.433348121411 51.8854442338466)" fill="none" stroke="#000000" stroke-width="4.8" stroke-linecap="square" stroke-linejoin="bevel" d="M0 1.05775C16.3127 -2.72394 28.3492 4.18471 39.6 13.0578"/><circle id="shape8" transform="matrix(0.694444268956894 0 0 0.694444268956894 158.375645513633 112.395607720902)" r="26.0030841344835" cx="26.0030841344835" cy="26.0030841344835" fill="none" stroke="#000000" stroke-width="4.8" stroke-linecap="square" stroke-linejoin="bevel"/><circle id="shape011" transform="matrix(0.694444254186777 0 0 0.694444254186777 119.708989002183 113.228941227719)" r="26.0030841344835" cx="26.0030841344835" cy="26.0030841344835" fill="none" stroke="#000000" stroke-width="4.8" stroke-linecap="square" stroke-linejoin="bevel"/><ellipse id="shape9" transform="matrix(0.694444268956894 0 0 0.694444268956894 171.725006122502 127.078301326168)" rx="2.94" ry="7.73999999999999" cx="2.94" cy="7.73999999999999" fill="#000000" fill-rule="evenodd" stroke="#000000" stroke-width="4.8" stroke-linecap="square" stroke-linejoin="bevel"/><ellipse id="shape0111" transform="matrix(0.694444255182913 0 0 0.694444255182913 135.725015260273 126.911634808228)" rx="2.94" ry="7.73999999999999" cx="2.94" cy="7.73999999999999" fill="#000000" fill-rule="evenodd" stroke="#000000" stroke-width="4.8" stroke-linecap="square" stroke-linejoin="bevel"/><path id="shape10" transform="matrix(0.694444268956894 0 0 0.694444268956894 85.4333612619185 131.453300220596)" fill="none" stroke="#000000" stroke-width="4.8" stroke-linecap="square" stroke-linejoin="bevel" d="M48.48 0L0 0.48"/><path id="shape13" transform="matrix(0.694444268956894 0 0 0.694444268956894 137.433348121411 178.573130829382)" fill="none" stroke="#000000" stroke-width="4.8" stroke-linecap="square" stroke-linejoin="bevel" d="M0 0C8.01903 2.64129 15.2945 3.05711 23.28 1.50743"/><path id="shape14" transform="matrix(0.694444268956894 0 0 0.694444268956894 152.433344330879 145.950882812946)" fill="none" stroke="#000000" stroke-width="4.8" stroke-linecap="square" stroke-linejoin="bevel" d="M0 15.8435C3.15661 16.6394 5.58479 18.3592 12 18.9635C19.244 19.0057 28.0471 17.5908 28.8 10.3235C26.7213 -3.01423 10.0142 0.0369487 0.72 0.963476"/><path id="shape15" transform="matrix(0.694444268956894 0 0 0.694444268956894 100.183344962057 204.119948524245)" fill="none" stroke="#000000" stroke-width="4.8" stroke-linecap="square" stroke-linejoin="bevel" d="M3.62087e-05 0C-0.011219 4.43679 2.60176 10.6045 7.44004 18.24"/><path id="shape16" transform="matrix(0.694444268956894 0 0 0.694444268956894 73.4333642943433 135.432451760119)" fill="none" stroke="#000000" stroke-width="4.8" stroke-linecap="square" stroke-linejoin="bevel" d="M16.56 23.31C17.2369 15.5224 15.4519 -2.40746 0 0.270022"/><ellipse id="shape17" transform="matrix(0.595206101246155 -0.357746474093637 0.357746474093637 0.595206101246155 74.4699149662249 143.018222610129)" rx="4.44" ry="10.68" cx="4.44" cy="10.68" fill="#000000" fill-rule="evenodd" stroke="#000000" stroke-width="4.8" stroke-linecap="square" stroke-linejoin="bevel"/><circle id="shape18" transform="matrix(0.694444268956894 0 0 0.694444268956894 84.0583614430951 160.017591321739)" r="1.98000023945575" cx="1.98000023945575" cy="1.98000023945575" fill="#000000" fill-rule="evenodd" stroke="#000000" stroke-width="4.8" stroke-linecap="square" stroke-linejoin="bevel"/>
</svg>
