<svg height="511pt" viewBox="0 -4 511.99969 511" width="511pt" xmlns="http://www.w3.org/2000/svg"><path d="m58.074219 480.949219c-3.910157 0-7.820313-1.492188-10.804688-4.476563l-41.199219-41.199218c-2.867187-2.867188-4.476562-6.753907-4.476562-10.804688 0-4.054688 1.609375-7.941406 4.476562-10.808594l41.199219-41.199218c2.867188-2.863282 6.753907-4.476563 10.804688-4.476563 4.054687 0 7.941406 1.609375 10.808593 4.476563l41.199219 41.199218c2.867188 2.867188 4.476563 6.753906 4.476563 10.808594 0 4.050781-1.609375 7.941406-4.476563 10.804688l-41.199219 41.199218c-2.984374 2.984375-6.894531 4.476563-10.808593 4.476563zm0 0" fill="#ff468c"/><path d="m455.515625 153.339844c-3.910156 0-7.820313-1.492188-10.804687-4.476563l-41.199219-41.199219c-5.96875-5.96875-5.96875-15.644531 0-21.613281l41.199219-41.199219c2.867187-2.867187 6.753906-4.476562 10.804687-4.476562 4.054687 0 7.941406 1.609375 10.804687 4.476562l41.203126 41.199219c2.863281 2.863281 4.476562 6.753907 4.476562 10.804688 0 4.054687-1.609375 7.941406-4.476562 10.804687l-41.203126 41.203125c-2.980468 2.984375-6.894531 4.476563-10.804687 4.476563zm0 0" fill="#ff468c"/><path d="m300.996094 90.371094c-24.609375 0-44.632813-20.023438-44.632813-44.632813 0-24.613281 20.023438-44.632812 44.632813-44.632812 24.613281 0 44.632812 20.019531 44.632812 44.632812 0 24.609375-20.019531 44.632813-44.632812 44.632813zm0 0" fill="#06ccab"/><path d="m179.449219 340.328125c-24.609375 0-44.632813-20.023437-44.632813-44.632813 0-24.609374 20.023438-44.632812 44.632813-44.632812s44.632812 20.023438 44.632812 44.632812c0 24.609376-20.023437 44.632813-44.632812 44.632813zm0 0" fill="#06ccab"/><path d="m216.253906 141.328125c7.992188 0 15.652344-7.027344 15.28125-15.28125-.371094-8.28125-6.714844-15.285156-15.28125-15.285156-7.992187 0-15.652344 7.03125-15.28125 15.285156.371094 8.277344 6.714844 15.28125 15.28125 15.28125zm0 0" fill="#fffd78"/><path d="m229.914062 195.21875c7.992188 0 15.652344-7.03125 15.28125-15.285156-.371093-8.28125-6.714843-15.28125-15.28125-15.28125-7.996093 0-15.652343 7.027344-15.285156 15.28125.371094 8.28125 6.714844 15.285156 15.285156 15.285156zm0 0" fill="#fffd78"/><path d="m270.144531 154.988281c7.992188 0 15.652344-7.03125 15.28125-15.285156-.371093-8.277344-6.714843-15.28125-15.28125-15.28125-7.996093 0-15.652343 7.027344-15.285156 15.28125.371094 8.28125 6.714844 15.285156 15.285156 15.285156zm0 0" fill="#fffd78"/><path d="m231.535156 126.046875c-.371094-8.28125-6.714844-15.285156-15.28125-15.285156v30.566406c7.992188 0 15.652344-7.03125 15.28125-15.28125zm0 0" fill="#ffe733"/><path d="m285.425781 139.703125c-.371093-8.277344-6.714843-15.28125-15.28125-15.28125v30.566406c7.992188 0 15.652344-7.03125 15.28125-15.285156zm0 0" fill="#ffe733"/><path d="m245.195312 179.933594c-.371093-8.28125-6.714843-15.28125-15.28125-15.28125v30.566406c7.992188 0 15.652344-7.03125 15.28125-15.285156zm0 0" fill="#ffe733"/><path d="m450.570312 272.167969c7.992188 0 15.652344-7.03125 15.28125-15.285157-.371093-8.277343-6.714843-15.28125-15.28125-15.28125-7.996093 0-15.652343 7.027344-15.285156 15.28125.371094 8.28125 6.714844 15.285157 15.285156 15.285157zm0 0" fill="#fffd78"/><path d="m396.679688 285.824219c7.992187 0 15.652343-7.027344 15.28125-15.28125-.371094-8.28125-6.714844-15.28125-15.28125-15.28125-7.992188 0-15.652344 7.027343-15.28125 15.28125.371093 8.28125 6.714843 15.28125 15.28125 15.28125zm0 0" fill="#fffd78"/><path d="m436.910156 326.054688c7.992188 0 15.652344-7.027344 15.28125-15.28125-.371094-8.28125-6.714844-15.28125-15.28125-15.28125-7.992187 0-15.652344 7.027343-15.28125 15.28125.371094 8.28125 6.714844 15.28125 15.28125 15.28125zm0 0" fill="#fffd78"/><path d="m465.851562 256.882812c-.371093-8.277343-6.714843-15.28125-15.28125-15.28125v30.566407c7.992188 0 15.652344-7.03125 15.28125-15.285157zm0 0" fill="#ffe733"/><path d="m411.960938 270.542969c-.371094-8.28125-6.714844-15.28125-15.28125-15.28125v30.5625c7.992187 0 15.652343-7.027344 15.28125-15.28125zm0 0" fill="#ffe733"/><path d="m452.191406 310.773438c-.371094-8.28125-6.714844-15.28125-15.28125-15.28125v30.5625c7.992188 0 15.652344-7.027344 15.28125-15.28125zm0 0" fill="#ffe733"/><path d="m204.738281 439.75c7.992188 0 15.652344-7.03125 15.28125-15.285156-.371093-8.277344-6.714843-15.28125-15.28125-15.28125-7.996093 0-15.652343 7.03125-15.285156 15.28125.371094 8.28125 6.714844 15.285156 15.285156 15.285156zm0 0" fill="#fffd78"/><path d="m218.394531 493.636719c7.996094 0 15.652344-7.027344 15.285157-15.28125-.371094-8.28125-6.714844-15.28125-15.285157-15.28125-7.992187 0-15.652343 7.027343-15.28125 15.28125.371094 8.28125 6.714844 15.28125 15.28125 15.28125zm0 0" fill="#fffd78"/><path d="m258.625 453.40625c7.996094 0 15.652344-7.027344 15.285156-15.28125-.371094-8.28125-6.71875-15.28125-15.285156-15.28125-7.992188 0-15.652344 7.027344-15.28125 15.28125.371094 8.28125 6.714844 15.28125 15.28125 15.28125zm0 0" fill="#fffd78"/><path d="m220.019531 424.464844c-.371093-8.277344-6.714843-15.28125-15.28125-15.28125v30.566406c7.992188 0 15.652344-7.03125 15.28125-15.285156zm0 0" fill="#ffe733"/><path d="m273.910156 438.125c-.371094-8.28125-6.71875-15.28125-15.285156-15.28125v30.5625c7.996094 0 15.652344-7.027344 15.285156-15.28125zm0 0" fill="#ffe733"/><path d="m233.679688 478.355469c-.371094-8.28125-6.714844-15.28125-15.285157-15.28125v30.5625c7.996094 0 15.652344-7.027344 15.285157-15.28125zm0 0" fill="#ffe733"/><path d="m94.085938 245.222656c7.996093 0 15.652343-7.027344 15.285156-15.28125-.371094-8.28125-6.71875-15.285156-15.285156-15.285156-7.992188 0-15.652344 7.03125-15.28125 15.285156.371093 8.277344 6.714843 15.28125 15.28125 15.28125zm0 0" fill="#fffd78"/><path d="m40.199219 258.882812c7.992187 0 15.652343-7.03125 15.28125-15.285156-.371094-8.277344-6.714844-15.28125-15.28125-15.28125-7.996094 0-15.652344 7.027344-15.285157 15.28125.371094 8.28125 6.714844 15.285156 15.285157 15.285156zm0 0" fill="#fffd78"/><path d="m80.429688 299.113281c7.992187 0 15.652343-7.03125 15.28125-15.285156-.371094-8.28125-6.714844-15.28125-15.28125-15.28125-7.996094 0-15.652344 7.027344-15.28125 15.28125.367187 8.28125 6.710937 15.285156 15.28125 15.285156zm0 0" fill="#fffd78"/><g fill="#ffe733"><path d="m109.371094 229.941406c-.371094-8.28125-6.71875-15.285156-15.285156-15.285156v30.566406c7.996093 0 15.652343-7.027344 15.285156-15.28125zm0 0"/><path d="m55.480469 243.597656c-.371094-8.277344-6.714844-15.28125-15.28125-15.28125v30.566406c7.992187 0 15.652343-7.03125 15.28125-15.285156zm0 0"/><path d="m95.710938 283.828125c-.371094-8.28125-6.714844-15.28125-15.28125-15.28125v30.566406c7.992187 0 15.652343-7.03125 15.28125-15.285156zm0 0"/><path d="m467.980469 503.273438c-17.210938 0-35.25-4.5-51.898438-13.308594-16.21875-8.578125-29.835937-20.5-39.539062-34.417969-16.960938-.1875-34.480469-4.734375-50.695313-13.316406-10.574218-5.589844-23.167968-17.21875-30.742187-25.476563-5.703125-6.21875-5.285157-15.886718.9375-21.59375 6.21875-5.703125 15.882812-5.285156 21.589843.9375 7.324219 7.984375 17 16.207032 22.503907 19.117188 7.207031 3.8125 14.695312 6.542968 22.164062 8.132812-3.285156-15.671875-1.34375-31.0625 5.820313-44.605468l.171875-.324219c12.363281-23.371094 39.617187-33.289063 60.75-22.105469 10.472656 5.539062 18.066406 15.695312 20.832031 27.859375 2.609375 11.5.863281 23.855469-4.925781 34.796875l-.171875.324219c-7.164063 13.542969-18.796875 23.804687-33.601563 29.910156 5.519531 5.277344 11.988281 9.933594 19.195313 13.746094 19.589844 10.359375 42.132812 12.632812 58.832031 5.921875 7.832031-3.144532 16.730469.65625 19.875 8.488281 3.148437 7.832031-.652344 16.730469-8.484375 19.875-10.066406 4.042969-21.15625 6.039063-32.613281 6.039063zm-57.75-121.03125c-5.421875 0-11.515625 4.027343-14.917969 10.464843l-.175781.328125c-4.546875 8.597656-4.972657 19.03125-1.308594 29.84375 10.996094-3.058594 19.382813-9.28125 23.929687-17.878906l.171876-.324219c2.339843-4.417969 3.117187-9.421875 2.140624-13.730469-.464843-2.039062-1.773437-5.742187-5.320312-7.621093-1.394531-.734375-2.929688-1.082031-4.519531-1.082031zm0 0"/><path d="m15.289062 174.3125c-.113281 0-.226562 0-.34375-.003906-8.4375-.1875-15.128906-7.175782-14.94140575-15.613282.59765575-27.140624 15.51171875-55.125 39.89843775-74.859374 14.261718-11.539063 30.578125-19.378907 47.1875-22.824219 6.835937-15.527344 17.902344-29.847657 32.167968-41.386719 9.292969-7.523438 24.9375-14.535156 35.507813-18.253906 7.964844-2.800782 16.6875 1.382812 19.488281 9.34375 2.800782 7.960937-1.382812 16.6875-9.347656 19.488281-10.222656 3.597656-21.582031 9.261719-26.421875 13.179687-6.339844 5.128907-11.792969 10.945313-16.191406 17.183594 15.703125 3.140625 29.09375 10.972656 38.730469 22.882813l.230468.28125c7.792969 9.625 11.886719 21.414062 11.535156 33.199219-.371093 12.472656-5.867187 23.898437-15.078124 31.351562-18.585938 15.039062-47.234376 10.554688-63.867188-9.996094l-.222656-.269531c-9.644532-11.921875-14.515625-26.652344-14.308594-42.667969-7.023438 3-13.847656 7.121094-20.183594 12.25-17.226562 13.9375-28.171875 33.773438-28.566406 51.769532-.183594 8.320312-6.988281 14.945312-15.273438 14.945312zm95.046876-84.570312c-1.511719 11.3125.914062 21.46875 7.03125 29.03125l.222656.273437c5.9375 7.339844 15.5 9.839844 20.894531 5.476563 3.121094-2.527344 3.691406-6.410157 3.75-8.5.132813-4.414063-1.59375-9.175782-4.738281-13.0625l-.230469-.28125c-6.121094-7.566407-15.546875-12.058594-26.929687-12.9375zm0 0"/></g><path d="m383.113281 157.824219c-29.621093 2.351562-55.917969 18.308593-72.453125 42.929687-8.335937 12.410156-12.773437 26.507813-14.453125 41.253906-1.789062 15.726563 3.023438 66.089844-19.867187 69.382813-7.898438 1.136719-15.667969 6.707031-15.28125 15.285156.351562 7.890625 6.734375 15.761719 15.28125 15.28125 16.523437-.933593 29.75-10.199219 38.515625-23.953125 8.875-13.9375 10.933593-30.378906 11.121093-46.558594.1875-15.625.023438-30.039062 5.246094-44.949218 8.902344-19.71875 28.085938-34.445313 49.4375-37.945313 8.714844-.511719 18.164063-5.378906 17.734375-15.445312-.347656-7.738281-6.746093-15.960938-15.28125-15.28125zm0 0" fill="#ff468c"/><path d="m300.996094 1.105469v89.265625c24.613281 0 44.632812-20.023438 44.632812-44.632813 0-24.613281-20.019531-44.632812-44.632812-44.632812zm0 0" fill="#1cadb5"/><path d="m68.882812 476.472656 41.199219-41.199218c2.867188-2.867188 4.476563-6.753907 4.476563-10.804688 0-4.054688-1.609375-7.941406-4.476563-10.808594l-41.199219-41.199218c-2.867187-2.867188-6.753906-4.476563-10.804687-4.476563v112.964844c3.910156 0 7.820313-1.492188 10.804687-4.476563zm0 0" fill="#d72878"/><path d="m466.324219 44.851562c-2.867188-2.867187-6.753907-4.476562-10.808594-4.476562v112.964844c3.910156 0 7.824219-1.492188 10.808594-4.476563l41.199219-41.199219c2.867187-2.867187 4.476562-6.753906 4.476562-10.808593 0-4.050781-1.609375-7.941407-4.476562-10.804688zm0 0" fill="#d72878"/><path d="m179.449219 251.0625v89.265625c24.609375 0 44.632812-20.023437 44.632812-44.632813 0-24.613281-20.023437-44.632812-44.632812-44.632812zm0 0" fill="#1cadb5"/><path d="m138.484375 43.382812c4.839844-3.917968 16.199219-9.582031 26.421875-13.179687 7.960938-2.800781 12.144531-11.523437 9.34375-19.488281-2.800781-7.960938-11.523438-12.144532-19.484375-9.34375-10.570313 3.71875-26.214844 10.730468-35.511719 18.253906-9.300781 7.527344-17.230468 16.238281-23.53125 25.695312v95.15625c16.84375 18.65625 44.082032 22.292969 61.988282 7.804688 9.210937-7.453125 14.707031-18.878906 15.078124-31.351562.347657-11.78125-3.746093-23.570313-11.535156-33.199219l-.230468-.28125c-9.636719-11.910157-23.03125-19.742188-38.730469-22.878907 4.398437-6.242187 9.851562-12.058593 16.191406-17.1875zm-1.21875 59.296876.230469.28125c3.144531 3.886718 4.871094 8.644531 4.738281 13.058593-.0625 2.09375-.632813 5.976563-3.753906 8.503907-5.390625 4.363281-14.953125 1.859374-20.890625-5.480469l-.222656-.269531c-6.117188-7.5625-8.542969-17.71875-7.03125-29.03125 11.382812.878906 20.808593 5.371093 26.929687 12.9375zm0 0" fill="#ffc247"/><path d="m489.203125 468.871094c-16.699219 6.710937-39.242187 4.4375-58.828125-5.921875-7.207031-3.8125-13.679688-8.46875-19.199219-13.746094 14.804688-6.101563 26.4375-16.367187 33.601563-29.90625l.171875-.328125c5.789062-10.941406 7.539062-23.296875 4.925781-34.792969-2.765625-12.167969-10.359375-22.320312-20.832031-27.863281-8.90625-4.710938-18.898438-5.664062-28.40625-3.453125v33.261719c2.972656-2.46875 6.398437-3.875 9.59375-3.875 1.589843 0 3.125.347656 4.519531 1.082031 3.546875 1.878906 4.855469 5.582031 5.320312 7.621094.980469 4.304687.199219 9.308593-2.136718 13.730469l-.171875.324218c-3.558594 6.71875-9.464844 11.980469-17.125 15.421875v59.78125c4.824219 3.59375 9.980469 6.871094 15.445312 9.761719 16.648438 8.808594 34.6875 13.304688 51.898438 13.304688 11.457031 0 22.546875-1.992188 32.613281-6.035157 7.832031-3.144531 11.632812-12.042969 8.484375-19.875-3.144531-7.835937-12.042969-11.636719-19.875-8.492187zm0 0" fill="#ffc247"/><path d="m383.113281 157.824219c-26.429687 2.097656-50.207031 15.035156-66.773437 35.289062v122.414063c7.621094-13.386719 9.460937-28.847656 9.636718-44.082032.1875-15.625.023438-30.039062 5.246094-44.945312 8.898438-19.722656 28.085938-34.445312 49.433594-37.949219 8.71875-.507812 18.167969-5.378906 17.738281-15.445312-.347656-7.738281-6.746093-15.960938-15.28125-15.28125zm0 0" fill="#d72878"/></svg>